<?xml version="1.0" standalone="no"?>
<!DOCTYPE svg PUBLIC "-//W3C//DTD SVG 20010904//EN"
 "http://www.w3.org/TR/2001/REC-SVG-20010904/DTD/svg10.dtd">
<svg version="1.0" xmlns="http://www.w3.org/2000/svg"
 width="512.000000pt" height="512.000000pt" viewBox="0 0 512.000000 512.000000"
 preserveAspectRatio="xMidYMid meet">

<g transform="translate(0.000000,512.000000) scale(0.100000,-0.100000)"
fill="#000000" stroke="none">
<path d="M859 4463 c-74 -24 -138 -80 -178 -153 l-36 -65 0 -670 0 -670 28
-57 c34 -70 101 -131 173 -158 53 -19 76 -20 702 -20 592 0 651 1 696 17 63
23 140 92 174 157 l27 51 0 680 0 680 -23 43 c-35 66 -88 119 -150 149 l-57
28 -655 2 c-570 2 -661 0 -701 -14z m1316 -207 c68 -29 66 -6 63 -696 l-3
-620 -28 -27 -27 -28 -620 -3 c-551 -2 -624 -1 -651 13 -59 31 -59 26 -59 681
0 521 2 600 16 629 31 66 15 65 677 65 494 0 604 -2 632 -14z"/>
<path d="M2882 4461 c-29 -10 -70 -32 -90 -48 -46 -37 -99 -113 -112 -164 -7
-25 -10 -263 -8 -696 l3 -658 24 -45 c32 -61 86 -116 146 -148 l50 -27 680 0
680 0 43 23 c66 35 119 88 149 150 l28 57 0 670 0 670 -27 52 c-35 66 -85 116
-151 151 l-52 27 -655 2 c-615 3 -658 2 -708 -16z m1323 -207 c66 -31 65 -17
65 -678 0 -655 0 -650 -59 -681 -27 -14 -100 -15 -651 -13 l-620 3 -27 28 -28
27 -3 620 c-2 550 -1 624 13 651 31 59 23 58 678 59 525 0 603 -2 632 -16z"/>
<path d="M864 2439 c-49 -14 -125 -70 -161 -117 -64 -85 -64 -79 -61 -798 l3
-649 27 -52 c35 -66 85 -116 151 -151 l52 -27 670 0 670 0 57 28 c62 30 115
83 150 149 l23 43 0 680 0 680 -27 50 c-32 60 -87 114 -148 146 l-45 24 -665
2 c-383 1 -678 -2 -696 -8z m1343 -232 l28 -27 3 -620 c2 -551 1 -624 -13
-651 -31 -59 -26 -59 -681 -59 -661 0 -647 -1 -678 65 -14 29 -16 107 -16 628
0 416 3 604 11 626 7 18 26 41 43 52 30 18 55 19 653 17 l623 -3 27 -28z"/>
<path d="M2873 2433 c-57 -20 -138 -94 -171 -157 l-27 -51 0 -680 0 -680 31
-55 c17 -30 54 -74 83 -97 91 -76 74 -74 807 -71 l649 3 45 23 c72 35 114 75
151 144 l34 63 0 670 0 670 -28 57 c-34 70 -101 131 -173 158 -53 19 -75 20
-707 19 -552 0 -658 -3 -694 -16z m1338 -209 c59 -30 59 -26 59 -680 0 -522
-2 -600 -16 -629 -31 -66 -17 -65 -678 -65 -655 0 -650 0 -681 59 -14 27 -15
100 -13 650 3 603 4 619 23 641 11 12 29 26 40 31 11 4 294 8 628 8 533 1 612
-1 638 -15z"/>
</g>
</svg>
